<svg xmlns="http://www.w3.org/2000/svg" xmlns:xlink="http://www.w3.org/1999/xlink" width="500" zoomAndPan="magnify" viewBox="0 0 375 374.999991" height="500" preserveAspectRatio="xMidYMid meet" version="1.0"><path fill="#4760cc" d="M 205.976562 265.273438 C 197.753906 261.898438 177.144531 254.535156 153.894531 254.535156 C 141.605469 254.535156 130.242188 256.582031 120.050781 260.632812 C 119.039062 265.851562 117.554688 275.589844 118.09375 285.789062 C 118.523438 294.019531 120.164062 300.898438 122.96875 306.234375 C 126.171875 312.332031 130.851562 316.339844 137.273438 318.476562 C 146.570312 321.578125 157.109375 323.285156 166.953125 323.285156 C 176.480469 323.285156 193.621094 321.582031 201.425781 310.191406 C 205.796875 303.808594 207.890625 293.527344 207.472656 280.445312 C 207.277344 274.28125 206.550781 268.800781 205.976562 265.273438 " fill-opacity="1" fill-rule="nonzero"/><path fill="#4760cc" d="M 346.492188 249.746094 C 345.316406 250.160156 344.007812 250.453125 342.800781 250.34375 C 341.953125 250.269531 341.011719 250.144531 340.027344 249.992188 C 336.164062 225.148438 326.753906 209.234375 326.753906 209.234375 C 335.597656 241.871094 319.453125 266.117188 284.992188 278.453125 C 300.203125 267.136719 305.050781 252.773438 304.886719 238.824219 C 302.835938 248.316406 298.792969 257.15625 291.488281 263.261719 C 291.488281 263.261719 309.355469 242.597656 286.402344 187.617188 C 286.402344 187.617188 184.253906 263.214844 126.585938 221.351562 C 126.585938 221.351562 158.652344 237.25 191.808594 201.796875 C 173.460938 210.441406 146.320312 216.039062 114.558594 213.859375 C 108.132812 225.507812 107.328125 240.042969 107.523438 248.570312 C 104.882812 249.148438 102.105469 249.664062 99.910156 249.859375 C 99.625 249.882812 99.335938 249.886719 99.042969 249.871094 C 96.070312 234.976562 94.433594 221.257812 93.539062 211.335938 C 75.445312 208.242188 56.265625 202.589844 36.652344 193.632812 C 47.789062 192.808594 81.316406 201.839844 101.65625 172.75 C 101.65625 172.75 72.621094 185.28125 48.824219 162.597656 C 76.710938 169.949219 94.597656 140.6875 117.382812 132.355469 C 82.339844 135.21875 70.023438 106 70.023438 106 C 81.117188 119.984375 114.753906 118.316406 141.496094 99.339844 C 147.742188 94.902344 161.488281 86.578125 181.148438 81.304688 C 155.214844 78.570312 130.4375 82.738281 130.4375 82.738281 C 189.929688 54.757812 231.292969 60.835938 259.019531 76.542969 C 259.121094 76.507812 259.21875 76.472656 259.324219 76.441406 C 240.09375 53 202.917969 48.722656 202.917969 48.722656 C 243.742188 46.539062 301.550781 55.378906 318.421875 121.292969 C 362.5 132.636719 357.769531 197.117188 346.492188 249.746094 Z M 349.007812 268.027344 C 349.007812 268.027344 342.027344 268.898438 336.011719 272.140625 C 337.304688 290.679688 334.652344 316.96875 311.171875 324.792969 C 287.335938 332.742188 251.292969 333.636719 237.328125 313.25 C 231.023438 304.050781 229.558594 291.066406 229.761719 279.945312 C 229.84375 275.25 226.050781 271.402344 221.355469 271.402344 C 216.660156 271.402344 212.867188 275.25 212.949219 279.945312 C 213.152344 291.066406 211.6875 304.050781 205.386719 313.25 C 191.417969 333.636719 155.375 332.742188 131.539062 324.792969 C 108.0625 316.96875 105.410156 290.679688 106.699219 272.140625 C 100.6875 268.898438 93.703125 268.027344 93.703125 268.027344 L 92.503906 253.214844 C 92.503906 253.214844 96.59375 255.777344 99.910156 255.503906 C 102.625 255.277344 106.238281 254.582031 109.371094 253.894531 C 109.535156 253.191406 109.632812 252.808594 109.632812 252.808594 C 156.5625 231.191406 210.449219 257.554688 210.449219 257.554688 C 211.1875 260.8125 214.078125 263.128906 217.417969 263.128906 L 225.292969 263.128906 C 228.632812 263.128906 231.527344 260.8125 232.261719 257.554688 C 232.261719 257.554688 260.070312 243.949219 293.132812 244.300781 C 293.078125 244.992188 293.011719 245.65625 292.9375 246.285156 C 292.53125 249.652344 291.847656 252.394531 291.109375 254.554688 C 290.351562 254.542969 289.585938 254.535156 288.820312 254.535156 C 265.570312 254.535156 244.960938 261.898438 236.734375 265.273438 C 236.160156 268.800781 235.4375 274.28125 235.238281 280.445312 C 234.824219 293.527344 236.917969 303.808594 241.285156 310.191406 C 249.089844 321.582031 266.234375 323.285156 275.757812 323.285156 C 285.601562 323.285156 296.144531 321.578125 305.4375 318.476562 C 311.859375 316.339844 316.539062 312.332031 319.742188 306.234375 C 322.546875 300.898438 324.1875 294.019531 324.621094 285.789062 C 325.15625 275.589844 323.675781 265.851562 322.660156 260.632812 C 322.292969 260.488281 321.917969 260.355469 321.546875 260.210938 C 322.753906 258.789062 323.875 257.332031 324.902344 255.839844 C 326.0625 254.164062 327.105469 252.441406 328.035156 250.683594 C 329.726562 251.332031 331.40625 252.039062 333.078125 252.808594 C 333.078125 252.808594 333.179688 253.191406 333.339844 253.894531 C 336.472656 254.582031 340.085938 255.277344 342.800781 255.503906 C 346.121094 255.777344 350.207031 253.214844 350.207031 253.214844 Z M 206.25 0.00390625 C 92.34375 0.00390625 0.00390625 92.34375 0.00390625 206.25 C 0.00390625 320.15625 92.34375 412.496094 206.25 412.496094 C 320.15625 412.496094 412.496094 320.15625 412.496094 206.25 C 412.496094 92.34375 320.15625 0.00390625 206.25 0.00390625 " fill-opacity="1" fill-rule="nonzero"/></svg>