<svg xmlns="http://www.w3.org/2000/svg" xmlns:xlink="http://www.w3.org/1999/xlink" width="273" zoomAndPan="magnify" viewBox="0 0 204.75 56.249996" height="75" preserveAspectRatio="xMidYMid meet" version="1.0"><defs><g/><clipPath id="34012bfda2"><path d="M 1.226562 0.203125 L 203.28125 0.203125 L 203.28125 55.039062 L 1.226562 55.039062 Z M 1.226562 0.203125 " clip-rule="nonzero"/></clipPath><clipPath id="14df4d1aef"><path d="M 6.636719 5.386719 L 101.390625 5.386719 L 101.390625 50.191406 L 6.636719 50.191406 Z M 6.636719 5.386719 " clip-rule="nonzero"/></clipPath></defs><g clip-path="url(#34012bfda2)"><path stroke-linecap="butt" transform="matrix(0.741035, 0, 0, 0.736525, 1.22562, 0.202099)" fill="none" stroke-linejoin="miter" d="M 0.0012723 0.00139365 L 272.993527 0.00139365 L 272.993527 74.453611 L 0.0012723 74.453611 L 0.0012723 0.00139365 " stroke="#ffffff" stroke-width="6" stroke-opacity="1" stroke-miterlimit="4"/></g><g clip-path="url(#14df4d1aef)"><path fill="#ffffff" d="M 6.636719 5.386719 L 101.390625 5.386719 L 101.390625 50.191406 L 6.636719 50.191406 Z M 6.636719 5.386719 " fill-opacity="1" fill-rule="nonzero"/></g><g fill="#151f28" fill-opacity="1"><g transform="translate(18.637954, 34.441244)"><g><path d="M 2.191406 0 L 7.394531 0 C 12.015625 0 15.113281 -3.074219 15.113281 -7.523438 C 15.113281 -11.972656 12.015625 -15.046875 7.394531 -15.046875 L 2.191406 -15.046875 Z M 4.085938 -1.804688 L 4.085938 -13.242188 L 7.308594 -13.242188 C 10.8125 -13.242188 13.179688 -10.941406 13.179688 -7.523438 C 13.179688 -4.105469 10.835938 -1.804688 7.394531 -1.804688 Z M 4.085938 -1.804688 "/></g></g></g><g fill="#151f28" fill-opacity="1"><g transform="translate(36.626167, 34.441244)"><g><path d="M 9.027344 0.28125 C 13.609375 0.28125 16.832031 -2.945312 16.832031 -7.523438 C 16.832031 -12.101562 13.609375 -15.328125 9.027344 -15.328125 C 4.449219 -15.328125 1.246094 -12.101562 1.246094 -7.523438 C 1.246094 -2.945312 4.449219 0.28125 9.027344 0.28125 Z M 3.179688 -7.523438 C 3.179688 -11.027344 5.566406 -13.4375 9.027344 -13.4375 C 12.488281 -13.4375 14.875 -11.027344 14.875 -7.523438 C 14.875 -4.019531 12.488281 -1.613281 9.027344 -1.613281 C 5.566406 -1.613281 3.179688 -4.019531 3.179688 -7.523438 Z M 3.179688 -7.523438 "/></g></g></g><g fill="#151f28" fill-opacity="1"><g transform="translate(56.312091, 34.441244)"><g><path d="M 8.855469 0.28125 C 12.511719 0.28125 15.476562 -1.933594 16.382812 -5.289062 L 14.382812 -5.289062 C 13.609375 -3.03125 11.480469 -1.613281 8.921875 -1.613281 C 5.566406 -1.613281 3.179688 -4.042969 3.179688 -7.523438 C 3.179688 -11.007812 5.566406 -13.4375 8.921875 -13.4375 C 11.414062 -13.4375 13.457031 -12.101562 14.230469 -9.933594 L 16.253906 -9.933594 C 15.261719 -13.242188 12.402344 -15.328125 8.855469 -15.328125 C 4.429688 -15.328125 1.246094 -12.058594 1.246094 -7.523438 C 1.246094 -2.988281 4.429688 0.28125 8.855469 0.28125 Z M 8.855469 0.28125 "/></g></g></g><g fill="#151f28" fill-opacity="1"><g transform="translate(75.482256, 34.441244)"><g><path d="M 7.203125 0.28125 C 10.492188 0.28125 12.617188 -1.332031 12.617188 -3.957031 C 12.617188 -6.167969 11.136719 -7.503906 7.289062 -8.449219 C 4.363281 -9.15625 3.398438 -9.933594 3.398438 -11.179688 C 3.398438 -12.617188 4.6875 -13.523438 6.835938 -13.523438 C 9.050781 -13.523438 10.425781 -12.402344 10.46875 -10.597656 L 12.339844 -10.597656 C 12.316406 -13.523438 10.210938 -15.328125 6.835938 -15.328125 C 3.546875 -15.328125 1.460938 -13.714844 1.460938 -11.179688 C 1.460938 -8.855469 3.117188 -7.566406 6.816406 -6.6875 C 9.523438 -6.039062 10.664062 -5.289062 10.664062 -3.890625 C 10.664062 -2.40625 9.328125 -1.527344 7.203125 -1.527344 C 4.859375 -1.527344 3.226562 -2.6875 3.179688 -4.621094 L 1.289062 -4.621094 C 1.3125 -1.675781 3.613281 0.28125 7.203125 0.28125 Z M 7.203125 0.28125 "/></g></g></g><g fill="#ffffff" fill-opacity="1"><g transform="translate(120.13925, 34.885061)"><g><path d="M 8.773438 0.324219 C 13.953125 0.324219 17.203125 -3.441406 16.726562 -8.730469 L 8.019531 -8.730469 L 8.019531 -5.675781 L 12.167969 -5.675781 C 11.738281 -4.40625 10.535156 -3.546875 8.816406 -3.546875 C 6.40625 -3.546875 5.011719 -5.246094 5.011719 -7.527344 C 5.011719 -9.890625 6.535156 -11.503906 8.773438 -11.503906 C 10.105469 -11.503906 11.246094 -10.921875 11.824219 -9.976562 L 16.449219 -9.976562 C 15.566406 -13.265625 12.515625 -15.375 8.707031 -15.375 C 3.976562 -15.375 0.730469 -12.148438 0.730469 -7.527344 C 0.730469 -2.882812 4 0.324219 8.773438 0.324219 Z M 8.773438 0.324219 "/></g></g></g><g fill="#ffffff" fill-opacity="1"><g transform="translate(137.59754, 34.885061)"><g><path d="M 1.589844 0 L 12.148438 0 L 12.148438 -3.546875 L 5.890625 -3.546875 L 5.890625 -5.871094 L 11.332031 -5.871094 L 11.332031 -9.351562 L 5.890625 -9.351562 L 5.890625 -11.546875 L 11.910156 -11.546875 L 11.910156 -15.050781 L 1.589844 -15.050781 Z M 1.589844 0 "/></g></g></g><g fill="#ffffff" fill-opacity="1"><g transform="translate(150.712756, 34.885061)"><g><path d="M 1.589844 0 L 12.148438 0 L 12.148438 -3.546875 L 5.890625 -3.546875 L 5.890625 -5.871094 L 11.332031 -5.871094 L 11.332031 -9.351562 L 5.890625 -9.351562 L 5.890625 -11.546875 L 11.910156 -11.546875 L 11.910156 -15.050781 L 1.589844 -15.050781 Z M 1.589844 0 "/></g></g></g><g fill="#ffffff" fill-opacity="1"><g transform="translate(163.827972, 34.885061)"><g><path d="M 1.589844 0 L 5.933594 0 L 5.933594 -5.699219 L 7.828125 -5.699219 L 10.707031 0 L 15.738281 0 L 11.78125 -7.3125 C 12.234375 -7.847656 12.644531 -8.558594 12.988281 -9.4375 L 15.222656 -15.050781 L 10.515625 -15.050781 L 9.160156 -11.289062 C 8.707031 -9.976562 8.214844 -9.652344 6.664062 -9.652344 L 5.933594 -9.652344 L 5.933594 -15.050781 L 1.589844 -15.050781 Z M 1.589844 0 "/></g></g></g></svg>