<svg xmlns="http://www.w3.org/2000/svg" xmlns:xlink="http://www.w3.org/1999/xlink" width="273" zoomAndPan="magnify" viewBox="0 0 204.75 56.249996" height="75" preserveAspectRatio="xMidYMid meet" version="1.0"><defs><g/><clipPath id="0aeb6c1c8c"><path d="M 1.226562 0.203125 L 203.28125 0.203125 L 203.28125 55.039062 L 1.226562 55.039062 Z M 1.226562 0.203125 " clip-rule="nonzero"/></clipPath><clipPath id="8fcd04e4bc"><path d="M 6.636719 5.386719 L 101.390625 5.386719 L 101.390625 50.191406 L 6.636719 50.191406 Z M 6.636719 5.386719 " clip-rule="nonzero"/></clipPath></defs><g clip-path="url(#0aeb6c1c8c)"><path stroke-linecap="butt" transform="matrix(0.741035, 0, 0, 0.736525, 1.22562, 0.202098)" fill="none" stroke-linejoin="miter" d="M 0.0012723 0.00139374 L 272.993527 0.00139374 L 272.993527 74.453611 L 0.0012723 74.453611 Z M 0.0012723 0.00139374 " stroke="#003c5b" stroke-width="6" stroke-opacity="1" stroke-miterlimit="4"/></g><g clip-path="url(#8fcd04e4bc)"><path fill="#4760cc" d="M 6.636719 5.386719 L 101.390625 5.386719 L 101.390625 50.191406 L 6.636719 50.191406 Z M 6.636719 5.386719 " fill-opacity="1" fill-rule="nonzero"/></g><g fill="#ffffff" fill-opacity="1"><g transform="translate(18.622144, 34.769266)"><g><path d="M 2.191406 0 L 7.398438 0 C 12.019531 0 15.117188 -3.074219 15.117188 -7.527344 C 15.117188 -11.976562 12.019531 -15.050781 7.398438 -15.050781 L 2.191406 -15.050781 Z M 4.085938 -1.804688 L 4.085938 -13.246094 L 7.3125 -13.246094 C 10.816406 -13.246094 13.179688 -10.945312 13.179688 -7.527344 C 13.179688 -4.105469 10.835938 -1.804688 7.398438 -1.804688 Z M 4.085938 -1.804688 "/></g></g></g><g fill="#ffffff" fill-opacity="1"><g transform="translate(36.614165, 34.769266)"><g><path d="M 9.03125 0.28125 C 13.609375 0.28125 16.835938 -2.945312 16.835938 -7.527344 C 16.835938 -12.105469 13.609375 -15.332031 9.03125 -15.332031 C 4.449219 -15.332031 1.246094 -12.105469 1.246094 -7.527344 C 1.246094 -2.945312 4.449219 0.28125 9.03125 0.28125 Z M 3.183594 -7.527344 C 3.183594 -11.03125 5.570312 -13.4375 9.03125 -13.4375 C 12.492188 -13.4375 14.878906 -11.03125 14.878906 -7.527344 C 14.878906 -4.019531 12.492188 -1.613281 9.03125 -1.613281 C 5.570312 -1.613281 3.183594 -4.019531 3.183594 -7.527344 Z M 3.183594 -7.527344 "/></g></g></g><g fill="#ffffff" fill-opacity="1"><g transform="translate(56.30429, 34.769266)"><g><path d="M 8.859375 0.28125 C 12.515625 0.28125 15.480469 -1.933594 16.382812 -5.289062 L 14.386719 -5.289062 C 13.609375 -3.03125 11.480469 -1.613281 8.921875 -1.613281 C 5.570312 -1.613281 3.183594 -4.042969 3.183594 -7.527344 C 3.183594 -11.007812 5.570312 -13.4375 8.921875 -13.4375 C 11.417969 -13.4375 13.460938 -12.105469 14.234375 -9.933594 L 16.253906 -9.933594 C 15.265625 -13.246094 12.40625 -15.332031 8.859375 -15.332031 C 4.429688 -15.332031 1.246094 -12.0625 1.246094 -7.527344 C 1.246094 -2.988281 4.429688 0.28125 8.859375 0.28125 Z M 8.859375 0.28125 "/></g></g></g><g fill="#ffffff" fill-opacity="1"><g transform="translate(75.478533, 34.769266)"><g><path d="M 7.203125 0.28125 C 10.492188 0.28125 12.621094 -1.332031 12.621094 -3.957031 C 12.621094 -6.171875 11.136719 -7.503906 7.289062 -8.449219 C 4.363281 -9.160156 3.398438 -9.933594 3.398438 -11.179688 C 3.398438 -12.621094 4.6875 -13.523438 6.835938 -13.523438 C 9.050781 -13.523438 10.429688 -12.40625 10.472656 -10.601562 L 12.34375 -10.601562 C 12.320312 -13.523438 10.214844 -15.332031 6.835938 -15.332031 C 3.546875 -15.332031 1.460938 -13.71875 1.460938 -11.179688 C 1.460938 -8.859375 3.117188 -7.570312 6.816406 -6.6875 C 9.527344 -6.042969 10.664062 -5.289062 10.664062 -3.890625 C 10.664062 -2.410156 9.332031 -1.527344 7.203125 -1.527344 C 4.859375 -1.527344 3.226562 -2.6875 3.183594 -4.621094 L 1.289062 -4.621094 C 1.3125 -1.675781 3.613281 0.28125 7.203125 0.28125 Z M 7.203125 0.28125 "/></g></g></g><g fill="#002a42" fill-opacity="1"><g transform="translate(120.149935, 34.441244)"><g><path d="M 8.769531 0.324219 C 13.953125 0.324219 17.199219 -3.441406 16.726562 -8.726562 L 8.019531 -8.726562 L 8.019531 -5.675781 L 12.167969 -5.675781 C 11.738281 -4.40625 10.535156 -3.546875 8.8125 -3.546875 C 6.40625 -3.546875 5.007812 -5.246094 5.007812 -7.523438 C 5.007812 -9.890625 6.535156 -11.5 8.769531 -11.5 C 10.105469 -11.5 11.242188 -10.921875 11.824219 -9.976562 L 16.445312 -9.976562 C 15.5625 -13.265625 12.511719 -15.371094 8.707031 -15.371094 C 3.976562 -15.371094 0.730469 -12.144531 0.730469 -7.523438 C 0.730469 -2.878906 4 0.324219 8.769531 0.324219 Z M 8.769531 0.324219 "/></g></g></g><g fill="#002a42" fill-opacity="1"><g transform="translate(137.599859, 34.441244)"><g><path d="M 1.589844 0 L 12.144531 0 L 12.144531 -3.546875 L 5.890625 -3.546875 L 5.890625 -5.867188 L 11.328125 -5.867188 L 11.328125 -9.351562 L 5.890625 -9.351562 L 5.890625 -11.542969 L 11.910156 -11.542969 L 11.910156 -15.046875 L 1.589844 -15.046875 Z M 1.589844 0 "/></g></g></g><g fill="#002a42" fill-opacity="1"><g transform="translate(150.708796, 34.441244)"><g><path d="M 1.589844 0 L 12.144531 0 L 12.144531 -3.546875 L 5.890625 -3.546875 L 5.890625 -5.867188 L 11.328125 -5.867188 L 11.328125 -9.351562 L 5.890625 -9.351562 L 5.890625 -11.542969 L 11.910156 -11.542969 L 11.910156 -15.046875 L 1.589844 -15.046875 Z M 1.589844 0 "/></g></g></g><g fill="#002a42" fill-opacity="1"><g transform="translate(163.817734, 34.441244)"><g><path d="M 1.589844 0 L 5.933594 0 L 5.933594 -5.695312 L 7.824219 -5.695312 L 10.707031 0 L 15.734375 0 L 11.78125 -7.308594 C 12.230469 -7.847656 12.640625 -8.554688 12.984375 -9.4375 L 15.21875 -15.046875 L 10.511719 -15.046875 L 9.15625 -11.285156 C 8.707031 -9.976562 8.210938 -9.652344 6.664062 -9.652344 L 5.933594 -9.652344 L 5.933594 -15.046875 L 1.589844 -15.046875 Z M 1.589844 0 "/></g></g></g></svg>